<svg id="visual" viewBox="0 0 1920 1080" width="1920" height="1080" xmlns="http://www.w3.org/2000/svg" xmlns:xlink="http://www.w3.org/1999/xlink" version="1.1"><rect x="0" y="0" width="1920" height="1080" fill="#140021"></rect><path d="M0 386L320 386L320 455L640 455L640 339L960 339L960 347L1280 347L1280 379L1600 379L1600 245L1920 245L1920 400L1920 1081L1920 1081L1600 1081L1600 1081L1280 1081L1280 1081L960 1081L960 1081L640 1081L640 1081L320 1081L320 1081L0 1081Z" fill="#9900ff"></path><path d="M0 417L320 417L320 449L640 449L640 437L960 437L960 512L1280 512L1280 419L1600 419L1600 496L1920 496L1920 461L1920 1081L1920 1081L1600 1081L1600 1081L1280 1081L1280 1081L960 1081L960 1081L640 1081L640 1081L320 1081L320 1081L0 1081Z" fill="#8800e2"></path><path d="M0 539L320 539L320 659L640 659L640 570L960 570L960 537L1280 537L1280 600L1600 600L1600 543L1920 543L1920 691L1920 1081L1920 1081L1600 1081L1600 1081L1280 1081L1280 1081L960 1081L960 1081L640 1081L640 1081L320 1081L320 1081L0 1081Z" fill="#7700c6"></path><path d="M0 760L320 760L320 781L640 781L640 737L960 737L960 847L1280 847L1280 717L1600 717L1600 861L1920 861L1920 816L1920 1081L1920 1081L1600 1081L1600 1081L1280 1081L1280 1081L960 1081L960 1081L640 1081L640 1081L320 1081L320 1081L0 1081Z" fill="#6600ab"></path><path d="M0 906L320 906L320 843L640 843L640 941L960 941L960 955L1280 955L1280 929L1600 929L1600 958L1920 958L1920 983L1920 1081L1920 1081L1600 1081L1600 1081L1280 1081L1280 1081L960 1081L960 1081L640 1081L640 1081L320 1081L320 1081L0 1081Z" fill="#560090"></path></svg>