<svg id="visual" viewBox="0 0 900 600" width="900" height="600" xmlns="http://www.w3.org/2000/svg" xmlns:xlink="http://www.w3.org/1999/xlink" version="1.1"><rect x="0" y="0" width="900" height="600" fill="#140021"></rect><path d="M0 273L150 273L150 261L300 261L300 210L450 210L450 204L600 204L600 232L750 232L750 261L900 261L900 139L900 601L900 601L750 601L750 601L600 601L600 601L450 601L450 601L300 601L300 601L150 601L150 601L0 601Z" fill="#9900ff"></path><path d="M0 243L150 243L150 292L300 292L300 289L450 289L450 264L600 264L600 251L750 251L750 279L900 279L900 222L900 601L900 601L750 601L750 601L600 601L600 601L450 601L450 601L300 601L300 601L150 601L150 601L0 601Z" fill="#8800e2"></path><path d="M0 310L150 310L150 301L300 301L300 321L450 321L450 340L600 340L600 371L750 371L750 311L900 311L900 370L900 601L900 601L750 601L750 601L600 601L600 601L450 601L450 601L300 601L300 601L150 601L150 601L0 601Z" fill="#7700c6"></path><path d="M0 475L150 475L150 403L300 403L300 410L450 410L450 420L600 420L600 410L750 410L750 381L900 381L900 475L900 601L900 601L750 601L750 601L600 601L600 601L450 601L450 601L300 601L300 601L150 601L150 601L0 601Z" fill="#6600ab"></path><path d="M0 472L150 472L150 469L300 469L300 511L450 511L450 470L600 470L600 535L750 535L750 534L900 534L900 509L900 601L900 601L750 601L750 601L600 601L600 601L450 601L450 601L300 601L300 601L150 601L150 601L0 601Z" fill="#560090"></path></svg>