<svg id="visual" viewBox="0 0 900 600" width="900" height="600" xmlns="http://www.w3.org/2000/svg" xmlns:xlink="http://www.w3.org/1999/xlink" version="1.1"><path d="M0 91L82 91L82 121L164 121L164 79L245 79L245 49L327 49L327 67L409 67L409 79L491 79L491 103L573 103L573 103L655 103L655 61L736 61L736 55L818 55L818 49L900 49L900 73L900 0L900 0L818 0L818 0L736 0L736 0L655 0L655 0L573 0L573 0L491 0L491 0L409 0L409 0L327 0L327 0L245 0L245 0L164 0L164 0L82 0L82 0L0 0Z" fill="#fa7268"></path><path d="M0 301L82 301L82 307L164 307L164 169L245 169L245 133L327 133L327 175L409 175L409 343L491 343L491 187L573 187L573 289L655 289L655 217L736 217L736 205L818 205L818 229L900 229L900 187L900 71L900 47L818 47L818 53L736 53L736 59L655 59L655 101L573 101L573 101L491 101L491 77L409 77L409 65L327 65L327 47L245 47L245 77L164 77L164 119L82 119L82 89L0 89Z" fill="#ea5e66"></path><path d="M0 343L82 343L82 367L164 367L164 265L245 265L245 187L327 187L327 265L409 265L409 397L491 397L491 283L573 283L573 367L655 367L655 265L736 265L736 253L818 253L818 319L900 319L900 283L900 185L900 227L818 227L818 203L736 203L736 215L655 215L655 287L573 287L573 185L491 185L491 341L409 341L409 173L327 173L327 131L245 131L245 167L164 167L164 305L82 305L82 299L0 299Z" fill="#d84a64"></path><path d="M0 499L82 499L82 481L164 481L164 481L245 481L245 457L327 457L327 475L409 475L409 535L491 535L491 487L573 487L573 493L655 493L655 481L736 481L736 445L818 445L818 463L900 463L900 499L900 281L900 317L818 317L818 251L736 251L736 263L655 263L655 365L573 365L573 281L491 281L491 395L409 395L409 263L327 263L327 185L245 185L245 263L164 263L164 365L82 365L82 341L0 341Z" fill="#c53762"></path><path d="M0 601L82 601L82 601L164 601L164 601L245 601L245 601L327 601L327 601L409 601L409 601L491 601L491 601L573 601L573 601L655 601L655 601L736 601L736 601L818 601L818 601L900 601L900 601L900 497L900 461L818 461L818 443L736 443L736 479L655 479L655 491L573 491L573 485L491 485L491 533L409 533L409 473L327 473L327 455L245 455L245 479L164 479L164 479L82 479L82 497L0 497Z" fill="#b0235f"></path></svg>