<svg id="visual" viewBox="0 0 1920 1080" width="1920" height="1080" xmlns="http://www.w3.org/2000/svg" xmlns:xlink="http://www.w3.org/1999/xlink" version="1.1"><path d="M0 465L175 465L175 336L349 336L349 314L524 314L524 271L698 271L698 314L873 314L873 239L1047 239L1047 293L1222 293L1222 239L1396 239L1396 325L1571 325L1571 411L1745 411L1745 303L1920 303L1920 347L1920 0L1920 0L1745 0L1745 0L1571 0L1571 0L1396 0L1396 0L1222 0L1222 0L1047 0L1047 0L873 0L873 0L698 0L698 0L524 0L524 0L349 0L349 0L175 0L175 0L0 0Z" fill="#fa7268"></path><path d="M0 779L175 779L175 746L349 746L349 498L524 498L524 584L698 584L698 584L873 584L873 649L1047 649L1047 671L1222 671L1222 627L1396 627L1396 617L1571 617L1571 660L1745 660L1745 595L1920 595L1920 519L1920 345L1920 301L1745 301L1745 409L1571 409L1571 323L1396 323L1396 237L1222 237L1222 291L1047 291L1047 237L873 237L873 312L698 312L698 269L524 269L524 312L349 312L349 334L175 334L175 463L0 463Z" fill="#ea5e66"></path><path d="M0 843L175 843L175 811L349 811L349 584L524 584L524 649L698 649L698 768L873 768L873 800L1047 800L1047 768L1222 768L1222 757L1396 757L1396 681L1571 681L1571 757L1745 757L1745 779L1920 779L1920 703L1920 517L1920 593L1745 593L1745 658L1571 658L1571 615L1396 615L1396 625L1222 625L1222 669L1047 669L1047 647L873 647L873 582L698 582L698 582L524 582L524 496L349 496L349 744L175 744L175 777L0 777Z" fill="#d84a64"></path><path d="M0 973L175 973L175 941L349 941L349 854L524 854L524 941L698 941L698 919L873 919L873 908L1047 908L1047 919L1222 919L1222 919L1396 919L1396 887L1571 887L1571 865L1745 865L1745 984L1920 984L1920 973L1920 701L1920 777L1745 777L1745 755L1571 755L1571 679L1396 679L1396 755L1222 755L1222 766L1047 766L1047 798L873 798L873 766L698 766L698 647L524 647L524 582L349 582L349 809L175 809L175 841L0 841Z" fill="#c53762"></path><path d="M0 1081L175 1081L175 1081L349 1081L349 1081L524 1081L524 1081L698 1081L698 1081L873 1081L873 1081L1047 1081L1047 1081L1222 1081L1222 1081L1396 1081L1396 1081L1571 1081L1571 1081L1745 1081L1745 1081L1920 1081L1920 1081L1920 971L1920 982L1745 982L1745 863L1571 863L1571 885L1396 885L1396 917L1222 917L1222 917L1047 917L1047 906L873 906L873 917L698 917L698 939L524 939L524 852L349 852L349 939L175 939L175 971L0 971Z" fill="#b0235f"></path></svg>